#!OML:ASF E:\motion texture\Top Level 1\Subject 1\Session 1\male.ASF
:FULLY-SPECIFIED
:DEGREES
332
root -17.3343 18.1028 3.80221 445.312 -82.6046 -437.241
lowerback 0.929939 2.0788 6.05609
upperback -0.992629 2.82628 3.88052
thorax -1.44668 1.32465 0.548301
lowerneck -14.0347 -7.31858 -8.89305
upperneck 10.403 -9.53841 9.82173
head 6.36661 -4.27953 3.61042
rclavicle 2.06736e-014 -1.03368e-014
rhumerus -52.6416 -24.9662 -66.0339
rradius 17.258
rwrist 28.1892
rhand 9.1239 -20.1935
rfingers 7.12502
rthumb 34.2949 -406.911
lclavicle 2.06736e-014 -1.03368e-014
lhumerus -77.5281 30.8578 37.1322
lradius 16.7093
lwrist -40.7852
lhand 5.88799 17.7048
lfingers 7.12502
lthumb 31.2166 45.0648
rfemur -2.52024 2.08045 32.2573
rtibia 13.4192
rfoot -12.6105 -13.834
rtoes 11.4405
lfemur -33.4329 3.77297 -8.97421
ltibia 39.9506
lfoot -8.56185 6.59916
ltoes -15.9037
333
root -17.4679 18.0893 3.81392 449.055 -82.6191 -440.796
lowerback 0.908136 2.15158 6.15311
upperback -1.01401 2.92313 3.84851
thorax -1.44685 1.37109 0.460832
lowerneck -14.1362 -7.25826 -8.86126
upperneck 10.4209 -9.43654 9.70565
head 6.37163 -4.23388 3.57739
rclavicle 1.02374e-014 3.97569e-015
rhumerus -52.4437 -24.4439 -66.8226
rradius 17.1474
rwrist 28.6898
rhand 9.37473 -20.1869
rfingers 7.12502
rthumb 34.5331 -406.851
lclavicle 1.02374e-014 3.97569e-015
lhumerus -78.0728 31.2077 36.9629
lradius 16.6519
lwrist -39.3396
lhand 6.13803 17.4785
lfingers 7.12502
lthumb 31.4548 44.7923
rfemur -2.23293 2.29781 32.2898
rtibia 13.4299
rfoot -12.8017 -13.7114
rtoes 10.6626
lfemur -33.546 3.42063 -8.77089
ltibia 37.4567
lfoot -8.17054 7.37168
ltoes -15.7214
334
root -17.6028 18.0749 3.82599 452.745 -82.5975 -444.293
lowerback 0.875192 2.22471 6.25023
upperback -1.04003 3.01974 3.81171
thorax -1.44487 1.4174 0.36888
lowerneck -14.2384 -7.20059 -8.8158
upperneck 10.4454 -9.34322 9.59824
head 6.37973 -4.19124 3.54392
rclavicle 7.05686e-015 7.15625e-015
rhumerus -52.1964 -23.8644 -67.6062
rradius 17.085
rwrist 29.1368
rhand 9.54793 -20.2348
rfingers 7.12502
rthumb 34.6974 -406.861
lclavicle 7.05686e-015 7.15625e-015
lhumerus -78.3857 31.4958 37.0734
lradius 16.6267
lwrist -38.4319
lhand 6.52976 17.2755
lfingers 7.12502
lthumb 31.828 44.5158
rfemur -1.94918 2.49511 32.32
rtibia 13.4496
rfoot -12.9801 -13.5734
rtoes 9.82067
lfemur -33.5764 2.98334 -8.50429
ltibia 34.8033
lfoot -7.56691 8.09823
ltoes -15.4709
335
root -17.7396 18.0596 3.83843 456.374 -82.5499 -447.726
lowerback 0.82593 2.29933 6.33817
upperback -1.07335 3.11724 3.76894
thorax -1.44094 1.46424 0.276507
lowerneck -14.3107 -7.14324 -8.7598
upperneck 10.4591 -9.25627 9.50319
head 6.38026 -4.15154 3.51284
rclavicle 4.67144e-015 -3.81667e-014
rhumerus -51.9221 -23.2586 -68.3435
rradius 17.0668
rwrist 29.5194
rhand 9.66249 -20.3242
rfingers 7.12502
rthumb 34.8062 -406.925
lclavicle 4.67144e-015 -3.81667e-014
lhumerus -78.465 31.7175 37.4643
lradius 16.6283
lwrist -38.0489
lhand 6.98488 17.0036
lfingers 7.12502
lthumb 32.2613 44.1568
rfemur -1.6675 2.67101 32.3367
rtibia 13.4768
rfoot -13.157 -13.4168
rtoes 8.97067
lfemur -33.5291 2.45402 -8.17755
ltibia 32.014
lfoot -6.76525 8.7592
ltoes -15.1439
336
root -17.8777 18.0432 3.85068 459.89 -82.4751 -451.039
lowerback 0.761545 2.37208 6.41254
upperback -1.1123 3.21102 3.72369
thorax -1.43466 1.50939 0.189812
lowerneck -14.3802 -7.08741 -8.69553
upperneck 10.4736 -9.17474 9.41524
head 6.38124 -4.11378 3.48214
rclavicle 1.84373e-014 5.32743e-014
rhumerus -51.6182 -22.6548 -69.0076
rradius 17.0684
rwrist 29.8392
rhand 9.65022 -20.4321
rfingers 7.12502
rthumb 34.7945 -407.036
lclavicle 1.84373e-014 5.32743e-014
lhumerus -78.3019 31.8813 38.1358
lradius 16.6521
lwrist -38.1473
lhand 7.45963 16.6245
lfingers 7.12502
lthumb 32.7131 43.6849
rfemur -1.3969 2.83433 32.3462
rtibia 13.5165
rfoot -13.3406 -13.2525
rtoes 8.14714
lfemur -33.4242 1.82898 -7.77954
ltibia 29.1301
lfoot -5.81082 9.34481
ltoes -14.6672
337
root -18.0172 18.026 3.86291 463.274 -82.3797 -454.209
lowerback 0.688627 2.44187 6.47403
upperback -1.16668 3.30096 3.67357
thorax -1.43975 1.55229 0.105459
lowerneck -14.427 -7.02984 -8.63473
upperneck 10.4886 -9.09509 9.3453
head 6.37996 -4.07652 3.45816
rclavicle -2.37548e-014 3.26007e-014
rhumerus -51.3107 -22.08 -69.563
rradius 17.0791
rwrist 30.1037
rhand 9.49288 -20.5555
rfingers 7.12502
rthumb 34.6452 -407.194
lclavicle -2.37548e-014 3.26007e-014
lhumerus -77.9111 31.9714 39.0675
lradius 16.6897
lwrist -38.6394
lhand 7.88631 16.1139
lfingers 7.12502
lthumb 33.1189 43.089
rfemur -1.14082 2.98058 32.3417
rtibia 13.5722
rfoot -13.5335 -13.0749
rtoes 7.34751
lfemur -33.2808 1.11019 -7.31574
ltibia 26.2096
lfoot -4.77446 9.86
ltoes -14.0768
338
root -18.1585 18.0078 3.87507 466.531 -82.2638 -457.248
lowerback 0.604771 2.50922 6.52222
upperback -1.22618 3.38677 3.62172
thorax -1.44448 1.59324 0.0272417
lowerneck -14.4661 -6.97066 -8.57486
upperneck 10.501 -9.01547 9.28702
head 6.37733 -4.03877 3.43826
rclavicle 9.19379e-015 -4.25399e-014
rhumerus -50.9839 -21.5518 -70.0022
rradius 17.0848
rwrist 30.3102
rhand 9.15874 -20.6943
rfingers 7.12502
rthumb 34.328 -407.405
lclavicle 9.19379e-015 -4.25399e-014
lhumerus -77.2661 31.9703 40.3134
lradius 16.7452
lwrist -39.3903
lhand 8.22 15.4473
lfingers 7.12502
lthumb 33.4362 42.3544
rfemur -0.892878 3.11297 32.3253
rtibia 13.6457
rfoot -13.7343 -12.8826
rtoes 6.572
lfemur -33.111 0.314067 -6.79107
ltibia 23.3199
lfoot -3.76114 10.3155
ltoes -13.4139
